# xmcd
#
# Track frame offsets:
#  182
#  12717
#  27622
#  40285
#  52792
#  69287
#  86530
#  100750
#  113987
#  128307
#  144872
#  158470
#
# Disc length: 2302 seconds
#
# Revision: 3
# Processed by: cddbd v1.5.1PL2 Copyright (c) Steve Scherf et al.
# Submitted via: Collectorz.com_Music_Collector 6.11
#
DISCID=8c08fc0c
DTITLE=Various Artist - American Country: Country Now
DYEAR=1997
DGENRE=Country
TTITLE0=My Second Home - Tracy Lawrence
TTITLE1=Meet Me In The Middle - Diamond Rio
TTITLE2=She Took It Like A Man - Confederate Railroad
TTITLE3=That's Enough Of That - Mila Mason
TTITLE4=She'd Give Anything (To Fall In Love) - Boy Howdy
TTITLE5=Come Next Monday - K.T. Oslin
TTITLE6=I'm Living Up To Her Low Expectations - Daryle Singletary
TTITLE7=Except For Monday - Lorrie Morgan
TTITLE8=Where Forever Begins - Neal McCoy
TTITLE9=Even The Man In The Moon Is Crying - Mark Collie
TTITLE10=When The Thought Of You Catches Up With Me - David Ball
TTITLE11=Not Enough Hours In The Night - Doug Supernaw
EXTD=
EXTT0=
EXTT1=
EXTT2=
EXTT3=
EXTT4=
EXTT5=
EXTT6=
EXTT7=
EXTT8=
EXTT9=
EXTT10=
EXTT11=
PLAYORDER=
